<?xml version="1.0" standalone="no"?>
<svg xmlns:xlink="http://www.w3.org/1999/xlink" id="wave" style="transform:rotate(180deg); transition: 0.3s" viewBox="0 0 1440 490" version="1.1" xmlns="http://www.w3.org/2000/svg"><defs><linearGradient id="sw-gradient-0" x1="0" x2="0" y1="1" y2="0"><stop stop-color="#9d4edd" offset="0%"/><stop stop-color="#c77dff" offset="100%"/></linearGradient></defs><path style="transform:translate(0, 0px); opacity:1" fill="#7b2cbf" d="M0,0L80,24.5C160,49,320,98,480,106.2C640,114,800,82,960,65.3C1120,49,1280,49,1440,98C1600,147,1760,245,1920,277.7C2080,310,2240,278,2400,236.8C2560,196,2720,147,2880,147C3040,147,3200,196,3360,187.8C3520,180,3680,114,3840,130.7C4000,147,4160,245,4320,245C4480,245,4640,147,4800,122.5C4960,98,5120,147,5280,138.8C5440,131,5600,65,5760,40.8C5920,16,6080,33,6240,49C6400,65,6560,82,6720,114.3C6880,147,7040,196,7200,228.7C7360,261,7520,278,7680,236.8C7840,196,8000,98,8160,89.8C8320,82,8480,163,8640,179.7C8800,196,8960,147,9120,171.5C9280,196,9440,294,9600,318.5C9760,343,9920,294,10080,302.2C10240,310,10400,376,10560,400.2C10720,425,10880,408,11040,392C11200,376,11360,359,11440,351.2L11520,343L11520,490L11440,490C11360,490,11200,490,11040,490C10880,490,10720,490,10560,490C10400,490,10240,490,10080,490C9920,490,9760,490,9600,490C9440,490,9280,490,9120,490C8960,490,8800,490,8640,490C8480,490,8320,490,8160,490C8000,490,7840,490,7680,490C7520,490,7360,490,7200,490C7040,490,6880,490,6720,490C6560,490,6400,490,6240,490C6080,490,5920,490,5760,490C5600,490,5440,490,5280,490C5120,490,4960,490,4800,490C4640,490,4480,490,4320,490C4160,490,4000,490,3840,490C3680,490,3520,490,3360,490C3200,490,3040,490,2880,490C2720,490,2560,490,2400,490C2240,490,2080,490,1920,490C1760,490,1600,490,1440,490C1280,490,1120,490,960,490C800,490,640,490,480,490C320,490,160,490,80,490L0,490Z"/><defs><linearGradient id="sw-gradient-1" x1="0" x2="0" y1="1" y2="0"><stop stop-color="#c77dff" offset="0%"/><stop stop-color="#9d4edd" offset="100%"/></linearGradient></defs><path style="transform:translate(0, 50px); opacity:0.9" fill="#9d4edd" d="M0,294L80,253.2C160,212,320,131,480,155.2C640,180,800,310,960,302.2C1120,294,1280,147,1440,147C1600,147,1760,294,1920,334.8C2080,376,2240,310,2400,294C2560,278,2720,310,2880,269.5C3040,229,3200,114,3360,57.2C3520,0,3680,0,3840,16.3C4000,33,4160,65,4320,81.7C4480,98,4640,98,4800,81.7C4960,65,5120,33,5280,49C5440,65,5600,131,5760,171.5C5920,212,6080,229,6240,261.3C6400,294,6560,343,6720,375.7C6880,408,7040,425,7200,432.8C7360,441,7520,441,7680,424.7C7840,408,8000,376,8160,351.2C8320,327,8480,310,8640,277.7C8800,245,8960,196,9120,155.2C9280,114,9440,82,9600,65.3C9760,49,9920,49,10080,57.2C10240,65,10400,82,10560,89.8C10720,98,10880,98,11040,138.8C11200,180,11360,261,11440,302.2L11520,343L11520,490L11440,490C11360,490,11200,490,11040,490C10880,490,10720,490,10560,490C10400,490,10240,490,10080,490C9920,490,9760,490,9600,490C9440,490,9280,490,9120,490C8960,490,8800,490,8640,490C8480,490,8320,490,8160,490C8000,490,7840,490,7680,490C7520,490,7360,490,7200,490C7040,490,6880,490,6720,490C6560,490,6400,490,6240,490C6080,490,5920,490,5760,490C5600,490,5440,490,5280,490C5120,490,4960,490,4800,490C4640,490,4480,490,4320,490C4160,490,4000,490,3840,490C3680,490,3520,490,3360,490C3200,490,3040,490,2880,490C2720,490,2560,490,2400,490C2240,490,2080,490,1920,490C1760,490,1600,490,1440,490C1280,490,1120,490,960,490C800,490,640,490,480,490C320,490,160,490,80,490L0,490Z"/><defs><linearGradient id="sw-gradient-2" x1="0" x2="0" y1="1" y2="0"><stop stop-color="#c77dff" offset="0%"/><stop stop-color="#e0aaff" offset="100%"/></linearGradient></defs><path style="transform:translate(0, 100px); opacity:0.8" fill="#9d4edd" d="M0,147L80,179.7C160,212,320,278,480,269.5C640,261,800,180,960,138.8C1120,98,1280,98,1440,89.8C1600,82,1760,65,1920,81.7C2080,98,2240,147,2400,179.7C2560,212,2720,229,2880,196C3040,163,3200,82,3360,65.3C3520,49,3680,98,3840,155.2C4000,212,4160,278,4320,269.5C4480,261,4640,180,4800,171.5C4960,163,5120,229,5280,245C5440,261,5600,229,5760,228.7C5920,229,6080,261,6240,277.7C6400,294,6560,294,6720,294C6880,294,7040,294,7200,253.2C7360,212,7520,131,7680,81.7C7840,33,8000,16,8160,57.2C8320,98,8480,196,8640,253.2C8800,310,8960,327,9120,326.7C9280,327,9440,310,9600,261.3C9760,212,9920,131,10080,98C10240,65,10400,82,10560,89.8C10720,98,10880,98,11040,122.5C11200,147,11360,196,11440,220.5L11520,245L11520,490L11440,490C11360,490,11200,490,11040,490C10880,490,10720,490,10560,490C10400,490,10240,490,10080,490C9920,490,9760,490,9600,490C9440,490,9280,490,9120,490C8960,490,8800,490,8640,490C8480,490,8320,490,8160,490C8000,490,7840,490,7680,490C7520,490,7360,490,7200,490C7040,490,6880,490,6720,490C6560,490,6400,490,6240,490C6080,490,5920,490,5760,490C5600,490,5440,490,5280,490C5120,490,4960,490,4800,490C4640,490,4480,490,4320,490C4160,490,4000,490,3840,490C3680,490,3520,490,3360,490C3200,490,3040,490,2880,490C2720,490,2560,490,2400,490C2240,490,2080,490,1920,490C1760,490,1600,490,1440,490C1280,490,1120,490,960,490C800,490,640,490,480,490C320,490,160,490,80,490L0,490Z"/></svg>